<mxfile host="65bd71144e" modified="2021-03-09T15:28:59.506Z" agent="5.0 (Macintosh; Intel Mac OS X 11_2_2) AppleWebKit/537.36 (KHTML, like Gecko) Code/1.54.0 Chrome/87.0.4280.141 Electron/11.3.0 Safari/537.36" version="14.2.4" etag="2HTTBRNqCmIfNnhMnjIU" type="embed">
    <diagram id="8xxlJriHngn7J2Qc-iI4" name="Page-1">
        <mxGraphModel dx="500" dy="494" grid="1" gridSize="10" guides="1" tooltips="1" connect="1" arrows="1" fold="1" page="1" pageScale="1" pageWidth="850" pageHeight="1100" math="0" shadow="0">
            <root>
                <mxCell id="0"/>
                <mxCell id="1" parent="0"/>
                <mxCell id="23" style="edgeStyle=orthogonalEdgeStyle;rounded=0;orthogonalLoop=1;jettySize=auto;html=1;" edge="1" parent="1">
                    <mxGeometry relative="1" as="geometry">
                        <mxPoint x="230" y="340" as="targetPoint"/>
                        <mxPoint x="230" y="330" as="sourcePoint"/>
                        <Array as="points">
                            <mxPoint x="230" y="350"/>
                            <mxPoint x="260" y="350"/>
                            <mxPoint x="260" y="340"/>
                        </Array>
                    </mxGeometry>
                </mxCell>
            </root>
        </mxGraphModel>
    </diagram>
</mxfile>